<svg width="81" height="81" viewBox="0 0 81 81" fill="none" xmlns="http://www.w3.org/2000/svg">
<g clip-path="url(#clip0_2002_4173)">
<g clip-path="url(#clip1_2002_4173)">
<g clip-path="url(#clip2_2002_4173)">
<mask id="mask0_2002_4173" style="mask-type:luminance" maskUnits="userSpaceOnUse" x="0" y="0" width="81" height="81">
<path d="M12.8867 36.2494H0.886719L40.8867 0.24939L80.8867 36.2494H68.8867V55.9294C64.6867 55.2494 60.6067 53.5294 56.8867 50.9294C54.3667 52.6894 51.6867 53.9694 48.8867 54.8494V44.2494H32.8867V54.8494C30.0867 53.9694 27.4067 52.6894 24.8867 50.9294C21.1667 53.5294 17.0867 55.2494 12.8867 55.9294V36.2494ZM76.9651 64.2494C71.4052 64.2494 61.7667 62.3694 56.8867 58.9294C47.1267 65.7694 34.6467 65.7694 24.8867 58.9294C20.0067 62.3694 14.4467 64.2494 8.88672 64.2494H0.886719V80.2494H80.8867V64.2494" fill="white"/>
</mask>
<g mask="url(#mask0_2002_4173)">
<path d="M12.8867 36.2494H17.9848V31.1514H12.8867V36.2494ZM0.886718 36.2494L-2.52369 32.4601L-12.3985 41.3474H0.886718V36.2494ZM40.8867 0.249399L44.2972 -3.53994L40.8867 -6.60931L37.4763 -3.53994L40.8867 0.249399ZM80.8867 36.2494V41.3474H94.1722L84.2969 32.4601L80.8867 36.2494ZM68.8867 36.2494V31.1514H63.7887V36.2494H68.8867ZM68.8867 55.9294L68.0719 60.9619L73.9848 61.9192V55.9294H68.8867ZM56.8867 50.9294L59.8073 46.7508L56.8878 44.7103L53.9677 46.7498L56.8867 50.9294ZM48.8867 54.8494H43.7887V61.7955L50.4153 59.7128L48.8867 54.8494ZM48.8867 44.2494H53.9848V39.1514H48.8867V44.2494ZM32.8867 44.2494V39.1514H27.7887V44.2494H32.8867ZM32.8867 54.8494L31.3582 59.7128L37.9848 61.7955V54.8494H32.8867ZM24.8867 50.9294L27.8058 46.7498L24.8856 44.7103L21.9662 46.7508L24.8867 50.9294ZM12.8867 55.9294H7.78868V61.9192L13.7015 60.9619L12.8867 55.9294ZM56.8867 58.9294L59.824 54.7626L56.8953 52.698L53.9609 54.7545L56.8867 58.9294ZM24.8867 58.9294L27.8125 54.7545L24.8782 52.698L21.9495 54.7626L24.8867 58.9294ZM0.886718 64.2494V59.1514H-4.21132V64.2494H0.886718ZM0.886718 80.2494H-4.21132V85.3474H0.886718V80.2494ZM80.8867 80.2494V85.3474H85.9848V80.2494H80.8867ZM12.8867 31.1514H0.886718V41.3474H12.8867V31.1514ZM4.29713 40.0387L44.2972 4.03874L37.4763 -3.53994L-2.52369 32.4601L4.29713 40.0387ZM37.4763 4.03874L77.4763 40.0387L84.2969 32.4601L44.2972 -3.53994L37.4763 4.03874ZM80.8867 31.1514H68.8867V41.3474H80.8867V31.1514ZM63.7887 36.2494V55.9294H73.9848V36.2494H63.7887ZM69.7015 50.8969C66.3299 50.351 62.9604 48.9546 59.8073 46.7508L53.9662 55.108C58.253 58.1041 63.0435 60.1478 68.0719 60.9619L69.7015 50.8969ZM53.9677 46.7498C51.8957 48.1968 49.689 49.2533 47.3582 49.9859L50.4153 59.7128C53.6844 58.6854 56.8377 57.1819 59.8058 55.109L53.9677 46.7498ZM53.9848 54.8494V44.2494H43.7887V54.8494H53.9848ZM48.8867 39.1514H32.8867V49.3474H48.8867V39.1514ZM27.7887 44.2494V54.8494H37.9848V44.2494H27.7887ZM34.4153 49.9859C32.0844 49.2533 29.8777 48.1968 27.8058 46.7498L21.9677 55.109C24.9357 57.1819 28.089 58.6854 31.3582 59.7128L34.4153 49.9859ZM21.9662 46.7508C18.813 48.9546 15.4435 50.351 12.0719 50.8969L13.7015 60.9619C18.7299 60.1478 23.5204 58.1041 27.8073 55.108L21.9662 46.7508ZM17.9848 55.9294V36.2494H7.78868V55.9294H17.9848ZM76.9651 59.1514C74.6612 59.1514 71.2692 58.748 67.8714 57.9247C64.3925 57.0818 61.4906 55.9374 59.824 54.7626L53.9495 63.0962C57.1628 65.3614 61.5201 66.8769 65.4705 67.8341C69.5019 68.8108 73.7091 69.3474 76.9651 69.3474V59.1514ZM53.9609 54.7545C45.9572 60.3636 35.8162 60.3636 27.8125 54.7545L21.9609 63.1043C33.4772 71.1751 48.2962 71.1751 59.8125 63.1043L53.9609 54.7545ZM21.9495 54.7626C17.8377 57.661 13.2886 59.1514 8.88672 59.1514V69.3474C15.6048 69.3474 22.1757 67.0778 27.824 63.0962L21.9495 54.7626ZM8.88672 59.1514H0.886718V69.3474H8.88672V59.1514ZM-4.21132 64.2494V80.2494H5.98476V64.2494H-4.21132ZM0.886718 85.3474H80.8867V75.1514H0.886718V85.3474ZM85.9848 80.2494V64.2494H75.7887V80.2494H85.9848Z" fill="white"/>
</g>
</g>
</g>
</g>
<defs>
<clipPath id="clip0_2002_4173">
<rect width="80" height="80" fill="white" transform="translate(0.886719 0.24939)"/>
</clipPath>
<clipPath id="clip1_2002_4173">
<rect width="80" height="80" fill="white" transform="translate(0.886719 0.24939)"/>
</clipPath>
<clipPath id="clip2_2002_4173">
<rect width="80" height="80" fill="white" transform="translate(0.886719 0.24939)"/>
</clipPath>
</defs>
</svg>
