<svg width="91" height="91" viewBox="0 0 91 91" fill="none" xmlns="http://www.w3.org/2000/svg">
<g clip-path="url(#clip0_2002_4222)">
<g clip-path="url(#clip1_2002_4222)">
<path d="M90.8867 45.2494C90.8867 20.4356 70.7005 0.24939 45.8867 0.24939C21.0729 0.24939 0.886719 20.4356 0.886719 45.2494V46.9481L30.8867 73.1981V90.2494H60.8867V73.1981L90.8867 46.9481V45.2494ZM45.8867 9.1106C49.1379 12.6431 54.9692 21.0057 56.653 36.4594C53.9417 35.0532 50.413 33.9994 45.8867 33.9994C41.3604 33.9994 37.8317 35.0532 35.1204 36.4594C36.8079 20.9907 42.6505 12.6281 45.8867 9.1106ZM27.4592 46.7419L36.4517 67.7494H36.043L9.64297 44.6494C11.0867 43.1869 13.6067 41.4994 17.7617 41.4994C24.8942 41.4994 27.358 46.5694 27.4592 46.7419ZM44.6117 67.7494L35.1617 45.7181C36.6017 44.0907 39.8117 41.4994 45.8867 41.4994C51.9804 41.4994 55.2017 44.1057 56.6117 45.7032L47.1617 67.7494H44.6117ZM55.3217 67.7494L64.3142 46.7419C64.3592 46.6857 66.7142 41.4994 74.0117 41.4994C78.1442 41.4994 80.6604 43.1981 82.1117 44.6644L55.7304 67.7494H55.3217ZM82.1117 35.6681C79.9292 34.6744 77.2629 33.9994 74.0117 33.9994C69.8492 33.9994 66.6429 35.0982 64.1829 36.5644C62.8929 23.5257 58.8954 14.5894 55.1754 8.94939C68.3004 12.3207 78.6542 22.5881 82.1117 35.6681ZM36.5867 8.96814C32.878 14.5931 28.8805 23.5257 27.5905 36.5644C25.1305 35.0982 21.9242 33.9994 17.7617 33.9994C14.5105 33.9994 11.8442 34.6744 9.66172 35.6681C11.3767 29.2289 14.7745 23.3619 19.5063 18.6697C24.238 13.9775 30.1333 10.629 36.5867 8.96814ZM53.3867 82.7494H38.3867V75.2494H53.3867V82.7494Z" fill="white"/>
</g>
</g>
<defs>
<clipPath id="clip0_2002_4222">
<rect width="90" height="90" fill="white" transform="translate(0.886719 0.24939)"/>
</clipPath>
<clipPath id="clip1_2002_4222">
<rect width="90" height="90" fill="white" transform="translate(0.886719 0.24939)"/>
</clipPath>
</defs>
</svg>
