<svg width="71" height="81" viewBox="0 0 71 81" fill="none" xmlns="http://www.w3.org/2000/svg">
<g clip-path="url(#clip0_2002_4184)">
<g clip-path="url(#clip1_2002_4184)">
<g clip-path="url(#clip2_2002_4184)">
<path d="M33.5546 72.5136V65.2453H37.4987V72.5136H33.5546ZM39.9516 77.4192H42.4044H65.6931H68.1459V74.9664V74.8659V5.61055V3.15772H65.6931H61.4094L57.1258 3.07999L57.1035 3.07959H57.0813H14.6838H14.6615L14.6392 3.07999L10.3556 3.15771L6.07049 3.15772H3.61766V5.61055V74.8668V74.8677L3.61759 74.9646L3.61575 77.4192H6.07042H28.649H31.1018H39.9516ZM17.3162 18.908H19.6892V19.2191H17.3162V18.908ZM31.2752 19.2191H28.9023V18.908H31.2752V19.2191ZM42.8628 19.2191H40.4898V18.908H42.8628V19.2191ZM54.4488 19.2191H52.0758V18.908H54.4488V19.2191ZM17.3162 29.3413H19.6892V29.6523H17.3162V29.3413ZM31.2752 29.6523H28.9023V29.3413H31.2752V29.6523ZM42.8628 29.6523H40.4898V29.3413H42.8628V29.6523ZM54.4488 29.6523H52.0758V29.3413H54.4488V29.6523ZM52.0758 40.0874V39.7765H54.4488V40.0874H52.0758ZM40.4898 39.7765H42.8628V40.0874H40.4898V39.7765ZM28.9023 39.7765H31.2752V40.0874H28.9023V39.7765ZM17.3162 39.7765H19.6892V40.0874H17.3162V39.7765ZM17.3162 50.5207V50.2098H19.6892V50.5207H17.3162ZM31.2752 50.5207H28.9023V50.2098H31.2752V50.5207ZM42.8628 50.5207H40.4898V50.2098H42.8628V50.5207ZM54.4488 50.5207H52.0758V50.2098H54.4488V50.5207ZM52.0758 60.954V60.6431H54.4488V60.954H52.0758ZM17.3162 60.6431H19.6892V60.954H17.3162V60.6431Z" stroke="white" stroke-width="4.90566"/>
</g>
</g>
</g>
<defs>
<clipPath id="clip0_2002_4184">
<rect width="70.19" height="80" fill="white" transform="translate(0.786713 0.24939)"/>
</clipPath>
<clipPath id="clip1_2002_4184">
<rect width="70.19" height="80" fill="white" transform="translate(0.786713 0.24939)"/>
</clipPath>
<clipPath id="clip2_2002_4184">
<rect width="70.1887" height="80" fill="white" transform="translate(0.787384 0.24939)"/>
</clipPath>
</defs>
</svg>
