<svg width="77" height="81" viewBox="0 0 77 81" fill="none" xmlns="http://www.w3.org/2000/svg">
<g clip-path="url(#clip0_2002_4192)">
<g clip-path="url(#clip1_2002_4192)">
<g clip-path="url(#clip2_2002_4192)">
<path fill-rule="evenodd" clip-rule="evenodd" d="M67.9282 15.083V0.24939H9.84699V15.083H4.94241V75.6862H0.847534V80.2494H76.926V75.6846H72.8311V15.083H67.9282ZM36.725 65.1198V75.6846H30.8732V65.1198H36.725ZM41.0519 65.1198H46.902V75.6846H41.0519V65.1198ZM9.84699 19.6478H67.9282V75.6862H51.2289V61.0942H26.5463V75.6862H9.84699V19.6478ZM63.0254 15.083H14.7498V4.81419H63.0254V15.083ZM23.2421 29.1374V24.5726H14.9544V29.1374H23.2421ZM28.1467 24.5726V29.1374H36.4344V24.5726H28.1467ZM41.3408 24.5726V29.1374H49.6285V24.5726H41.3408ZM54.5331 24.5726V29.1374H62.8208V24.5726H54.5331ZM23.2421 38.267V33.7022H14.9544V38.267H23.2421ZM28.1467 33.7022V38.267H36.4344V33.7022H28.1467ZM41.3408 33.7022V38.267H49.6285V33.7022H41.3408ZM54.5331 33.7022V38.267H62.8208V33.7022H54.5331ZM62.8208 42.8334H54.5331V47.3982H62.8208V42.8334ZM49.6285 47.3982V42.8334H41.3408V47.3982H49.6285ZM36.4344 47.3982V42.8334H28.1467V47.3982H36.4344ZM23.2421 47.3982V42.8334H14.9544V47.3982H23.2421ZM23.2421 51.963H14.9544V56.5278H23.2421V51.963ZM28.1467 51.963V56.5278H36.4344V51.963H28.1467ZM41.3408 51.963V56.5278H49.6285V51.963H41.3408ZM54.5331 51.963V56.5278H62.8208V51.963H54.5331ZM62.8208 61.0926H54.5331V65.6574H62.8208V61.0926ZM23.2421 65.6574V61.0926H14.9544V65.6574H23.2421Z" fill="white"/>
<path d="M21.1352 7.30823L21.8943 9.47599H24.351L22.3635 10.8158L23.1226 12.9836L21.1352 11.6438L19.1477 12.9836L19.9069 10.8158L17.9194 9.47599H20.3761L21.1352 7.30823Z" fill="white"/>
<path d="M29.5884 7.30823L30.3475 9.47599H32.8042L30.8167 10.8158L31.5758 12.9836L29.5884 11.6438L27.6009 12.9836L28.3601 10.8158L26.3726 9.47599H28.8292L29.5884 7.30823Z" fill="white"/>
<path d="M38.4642 7.30823L39.3183 9.47599H42.082L39.8461 10.8158L40.7001 12.9836L38.4642 11.6438L36.2284 12.9836L37.0824 10.8158L34.8465 9.47599H37.6102L38.4642 7.30823Z" fill="white"/>
<path d="M47.34 7.30823L48.0992 9.47599H50.5558L48.5683 10.8158L49.3275 12.9836L47.34 11.6438L45.3526 12.9836L46.1117 10.8158L44.1243 9.47599H46.5809L47.34 7.30823Z" fill="white"/>
<path d="M55.7932 7.30823L56.5523 9.47599H59.0089L57.0215 10.8158L57.7806 12.9836L55.7932 11.6438L53.8057 12.9836L54.5648 10.8158L52.5774 9.47599H55.034L55.7932 7.30823Z" fill="white"/>
</g>
</g>
</g>
<defs>
<clipPath id="clip0_2002_4192">
<rect width="76.07" height="80" fill="white" transform="translate(0.846741 0.24939)"/>
</clipPath>
<clipPath id="clip1_2002_4192">
<rect width="76.07" height="80" fill="white" transform="translate(0.846741 0.24939)"/>
</clipPath>
<clipPath id="clip2_2002_4192">
<rect width="76.0784" height="80" fill="white" transform="translate(0.847534 0.24939)"/>
</clipPath>
</defs>
</svg>
