<svg width="126" height="26" viewBox="0 0 126 26" fill="none" xmlns="http://www.w3.org/2000/svg">
<g clip-path="url(#clip0_2002_4126)">
<g clip-path="url(#clip1_2002_4126)">
<g clip-path="url(#clip2_2002_4126)">
<mask id="mask0_2002_4126" style="mask-type:alpha" maskUnits="userSpaceOnUse" x="-14" y="0" width="60" height="23">
<path fill-rule="evenodd" clip-rule="evenodd" d="M12.4335 5.04656L7.94209 0.749634L-2.69385 10.9251L-13.3298 21.1005H-4.3506L4.04145 13.0735L12.4335 5.04656ZM13.4152 5.98573L-2.3695 21.1005H29.214L13.4152 5.98573Z" fill="#716FFF"/>
<path fill-rule="evenodd" clip-rule="evenodd" d="M45.8539 21.1001L25.1096 0.74939L20.6486 5.12586L37.3656 21.1001H45.8539ZM35.3826 21.1001L19.6787 6.07731L4.36552 21.1001H35.3826Z" fill="#716FFF"/>
<path fill-rule="evenodd" clip-rule="evenodd" d="M16.5324 3.02747L-3.77724 22.4576H36.8271L16.5324 3.02747Z" fill="#716FFF"/>
</mask>
<g mask="url(#mask0_2002_4126)">
<path fill-rule="evenodd" clip-rule="evenodd" d="M30.5822 7.04844C30.5822 15.0888 24.1575 21.6067 16.2323 21.6067C8.30706 21.6067 1.88226 15.0888 1.88226 7.04844C1.88226 -0.991907 8.30706 -7.50989 16.2323 -7.50989C24.1575 -7.50989 30.5822 -0.991907 30.5822 7.04844ZM13.1568 9.62235H15.837V12.3415H13.1568V9.62235ZM15.837 13.1433H13.1568V15.8625H15.837V13.1433ZM16.6273 9.62235H19.3075V12.3415H16.6273V9.62235ZM19.3075 13.1433H16.6273V15.8625H19.3075V13.1433Z" fill="#FF7E47"/>
</g>
<path d="M45.6907 20.0464C49.0387 20.0464 51.7657 18.1834 51.7657 14.5654V0.849365H50.3077V14.5654C50.3077 17.2654 48.4447 18.6694 45.6907 18.6694C43.5577 18.6694 41.9377 17.8594 41.2627 16.1584L40.0477 16.8874C40.9657 18.9664 43.0987 20.0464 45.6907 20.0464ZM61.9407 20.0464C65.8557 20.0464 69.0147 16.9954 69.0147 12.9994C69.0147 9.00337 65.8557 5.95237 61.9407 5.95237C57.9987 5.95237 54.8397 9.00337 54.8397 12.9994C54.8397 16.9954 57.9987 20.0464 61.9407 20.0464ZM61.9407 18.7504C58.7277 18.7504 56.2167 16.2124 56.2167 12.9994C56.2167 9.78637 58.7277 7.24837 61.9407 7.24837C65.1537 7.24837 67.6377 9.78637 67.6377 12.9994C67.6377 16.2124 65.1537 18.7504 61.9407 18.7504ZM81.6182 6.24937L76.9202 18.2644L71.4662 6.24937H70.0082L76.2182 19.9924L75.9212 20.7214C75.0842 22.6924 73.7072 24.0424 71.8982 23.8804V25.1494C74.2202 25.3384 76.2182 23.5834 77.2442 20.9914L83.0762 6.24937H81.6182ZM92.4119 7.57237V6.24937H88.3889V2.46937L87.0119 2.87437V6.24937H84.0419V7.57237H87.0119V16.3474C87.0119 19.4254 88.8749 20.2894 92.4119 19.7494V18.5344C89.6579 18.7774 88.3889 18.7234 88.3889 16.3474V7.57237H92.4119ZM101.017 20.0464C104.932 20.0464 108.091 16.9954 108.091 12.9994C108.091 9.00337 104.932 5.95237 101.017 5.95237C97.0749 5.95237 93.9159 9.00337 93.9159 12.9994C93.9159 16.9954 97.0749 20.0464 101.017 20.0464ZM101.017 18.7504C97.8039 18.7504 95.2929 16.2124 95.2929 12.9994C95.2929 9.78637 97.8039 7.24837 101.017 7.24837C104.23 7.24837 106.714 9.78637 106.714 12.9994C106.714 16.2124 104.23 18.7504 101.017 18.7504ZM118.495 5.95237C115.876 5.95237 113.797 7.30237 112.69 9.38137V6.24937H111.34V25.1494H112.69V16.6174C113.797 18.6964 115.876 20.0464 118.495 20.0464C122.356 20.0464 125.488 16.9954 125.488 12.9994C125.488 9.00337 122.356 5.95237 118.495 5.95237ZM118.414 18.7504C115.201 18.7504 112.69 16.2124 112.69 12.9994C112.69 9.78637 115.201 7.24837 118.414 7.24837C121.627 7.24837 124.138 9.78637 124.138 12.9994C124.138 16.2124 121.627 18.7504 118.414 18.7504Z" fill="black"/>
</g>
</g>
</g>
<defs>
<clipPath id="clip0_2002_4126">
<rect width="125" height="25" fill="white" transform="translate(0.886719 0.74939)"/>
</clipPath>
<clipPath id="clip1_2002_4126">
<rect width="125" height="25" fill="white" transform="translate(0.886719 0.74939)"/>
</clipPath>
<clipPath id="clip2_2002_4126">
<rect width="125" height="25" fill="white" transform="translate(0.886719 0.74939)"/>
</clipPath>
</defs>
</svg>
