<svg width="134" height="91" viewBox="0 0 134 91" fill="none" xmlns="http://www.w3.org/2000/svg">
<g clip-path="url(#clip0_2002_4206)">
<g clip-path="url(#clip1_2002_4206)">
<path fill-rule="evenodd" clip-rule="evenodd" d="M34.8277 13.9485L27.2246 31.3794L8.40761 35.5512L8.07163 34.0354L34.8277 13.9485ZM43.9174 9.63636L58.2504 24.5011L35.206 29.6095L43.9174 9.63636ZM65.8164 22.8213L52.6368 9.15496L86.5196 16.0965L86.972 18.1309L65.8164 22.8213ZM84.9906 72.4631L72.676 52.5032L66.3085 56.4344L78.5383 76.2566L69.4248 90.2484H78.3584L85.0753 79.9417L117.323 79.9444L124.051 90.2484H132.979L126.259 79.9417H131.746V72.4604L84.9906 72.4631ZM92.0379 10.483L42.0735 0.250366L0.706718 31.3079L3.39184 43.4213L45.4862 34.0882L57.9991 90.2484H65.6629L52.7902 32.4719L94.8446 23.1467L92.0379 10.483Z" fill="white"/>
</g>
</g>
<defs>
<clipPath id="clip0_2002_4206">
<rect width="132.35" height="90" fill="white" transform="translate(0.706718 0.24939)"/>
</clipPath>
<clipPath id="clip1_2002_4206">
<rect width="132.35" height="89.998" fill="white" transform="translate(0.706718 0.250366)"/>
</clipPath>
</defs>
</svg>
