<svg width="81" height="81" viewBox="0 0 81 81" fill="none" xmlns="http://www.w3.org/2000/svg">
<g clip-path="url(#clip0_2002_4213)">
<g clip-path="url(#clip1_2002_4213)">
<g clip-path="url(#clip2_2002_4213)">
<path d="M60.8867 72.2411H20.8867V76.2452C20.8867 77.3071 20.4653 78.3256 19.7151 79.0768C18.965 79.8274 17.9476 80.2493 16.8867 80.2493H12.8867C11.8259 80.2493 10.8084 79.8274 10.0583 79.0768C9.30813 78.3256 8.88672 77.3071 8.88672 76.2452V72.2411H4.88672V40.2081H0.886719V24.1915H4.88672V12.1791C4.88672 10.0552 5.72957 8.0183 7.22986 6.51646C8.73017 5.01462 10.765 4.1709 12.8867 4.1709H68.8867C71.0084 4.1709 73.0433 5.01462 74.5436 6.51646C76.0439 8.0183 76.8867 10.0552 76.8867 12.1791V24.1915H80.8867V40.2081H76.8867V72.2411H72.8867V76.2452C72.8867 77.3071 72.4653 78.3256 71.7151 79.0768C70.965 79.8274 69.9476 80.2493 68.8867 80.2493H64.8867C63.8259 80.2493 62.8084 79.8274 62.0583 79.0768C61.3081 78.3256 60.8867 77.3071 60.8867 76.2452V72.2411ZM68.8867 40.2081V12.1791H12.8867V40.2081H68.8867ZM68.8867 48.2163H12.8867V64.2328H68.8867V48.2163ZM16.8867 52.2205H32.8867V60.2287H16.8867V52.2205ZM48.8867 52.2205H64.8867V60.2287H48.8867V52.2205Z" fill="white"/>
</g>
</g>
</g>
<defs>
<clipPath id="clip0_2002_4213">
<rect width="80" height="80" fill="white" transform="translate(0.886719 0.24939)"/>
</clipPath>
<clipPath id="clip1_2002_4213">
<rect width="80" height="80" fill="white" transform="translate(0.886719 0.24939)"/>
</clipPath>
<clipPath id="clip2_2002_4213">
<rect width="80" height="80" fill="white" transform="translate(0.886719 0.24939)"/>
</clipPath>
</defs>
</svg>
